<svg xmlns="http://www.w3.org/2000/svg" viewBox="0 0 400 400">
  <g id="layer1">
    <circle cx="200" cy="200" r="150" fill="#3498db" />
    <circle cx="200" cy="200" r="100" fill="#f1c40f" />
    <circle cx="200" cy="200" r="50" fill="#e74c3c" />
    <g id="shapes">
      <polygon points="200,100 250,150 200,200 150,150" fill="#f1c40f" />
      <polygon points="250,100 300,150 250,200 200,150" fill="#e74c3c" />
      <polygon points="200,250 250,300 200,350 150,300" fill="#f1c40f" />
      <polygon points="150,250 100,300 150,350 200,300" fill="#e74c3c" />
      <polygon points="150,100 100,150 150,200 200,150" fill="#e74c3c" />
      <polygon points="250,250 300,300 250,350 200,300" fill="#f1c40f" />
    </g>
    <text x="200" y="380" font-size="24" text-anchor="middle" fill="#ffffff">Geometric Shapes Unite</text>
    <text x="200" y="400" font-size="18" text-anchor="middle" fill="#ffffff">الاشكال الهندسية المتحدة</text>
  </g>
</svg>