<svg xmlns="http://www.w3.org/2000/svg" viewBox="0 0 400 400">
  <g id="layer1">
    <circle cx="200" cy="200" r="150" fill="#3498db" />
    <circle cx="200" cy="200" r="100" fill="#f1c40f" />
    <circle cx="200" cy="200" r="50" fill="#e74c3c" />
    <g id="polygons">
      <polygon points="200,50 250,120 150,120" fill="#3498db" />
      <polygon points="200,350 250,280 150,280" fill="#3498db" />
      <polygon points="50,200 120,250 120,150" fill="#3498db" />
      <polygon points="350,200 280,250 280,150" fill="#3498db" />
      <polygon points="200,50 250,120 150,120" fill="#f1c40f" transform="rotate(60 200 200)" />
      <polygon points="200,350 250,280 150,280" fill="#f1c40f" transform="rotate(60 200 200)" />
      <polygon points="50,200 120,250 120,150" fill="#f1c40f" transform="rotate(60 200 200)" />
      <polygon points="350,200 280,250 280,150" fill="#f1c40f" transform="rotate(60 200 200)" />
    </g>
    <text x="200" y="380" font-size="24" text-anchor="middle" fill="#e74c3c">Vibrant Geometric Shape Explosion</text>
    <text x="200" y="400" font-size="18" text-anchor="middle" fill="#e74c3c" font-family="Arial" transform="rotate(180 200 200)">انفجار الشكل الهندسي المتألق</text>
  </g>
</svg>